<svg xmlns="http://www.w3.org/2000/svg" width="389.748" height="30.76" viewBox="0 0 389.748 30.76">
  <g id="Artwork_4" data-name="Artwork 4" transform="translate(194.874 15.38)">
    <g id="그룹_35" data-name="그룹 35" transform="translate(-194.874 -15.38)">
      <g id="그룹_34" data-name="그룹 34">
        <g id="그룹_32" data-name="그룹 32">
          <path id="패스_12" data-name="패스 12" d="M96.978,26.419a.825.825,0,0,1-.383-.267L78.968,4.307a4.445,4.445,0,0,0-3.475-1.661H71.841V30.1h3.638V6.284h.014a.824.824,0,0,1,.644.308L93.762,28.436A4.445,4.445,0,0,0,97.238,30.1h3.379V2.646H96.978Z" transform="translate(-35.921 -1.323)" fill="#fff"/>
          <g id="그룹_30" data-name="그룹 30" transform="translate(162.827 1.323)">
            <path id="패스_13" data-name="패스 13" d="M325.653,8.434V24.31a5.8,5.8,0,0,0,5.788,5.788H353.1V26.459H331.441a2.152,2.152,0,0,1-2.15-2.149V8.434a2.152,2.152,0,0,1,2.15-2.15h21.713V2.646H331.441A5.8,5.8,0,0,0,325.653,8.434Z" transform="translate(-325.653 -2.646)" fill="#fff"/>
            <rect id="사각형_28" data-name="사각형 28" width="20.225" height="3.638" transform="translate(7.276 11.956)" fill="#fff"/>
          </g>
          <path id="패스_14" data-name="패스 14" d="M201.3,6.284h11.907V30.1h3.638V6.284h11.907V2.646H201.3Z" transform="translate(-100.65 -1.323)" fill="#fff"/>
          <path id="패스_15" data-name="패스 15" d="M152.044,30.76a15.38,15.38,0,1,0-15.38-15.38A15.4,15.4,0,0,0,152.044,30.76Zm0-27.122A11.742,11.742,0,1,1,140.3,15.38,11.755,11.755,0,0,1,152.044,3.638Z" transform="translate(-68.332)" fill="#fff"/>
          <path id="패스_16" data-name="패스 16" d="M267.114,18.191H287.29V30.1h3.638V2.646H287.29V14.553H267.114V2.646h-3.638V30.1h3.638Z" transform="translate(-131.738 -1.323)" fill="#fff"/>
          <g id="그룹_31" data-name="그룹 31" transform="translate(0 1.323)">
            <path id="패스_17" data-name="패스 17" d="M27.139,2.646a6.581,6.581,0,0,0-4.922,2.038L0,30.1H4.832L24.31,7.817a4.521,4.521,0,0,1,3.148-1.533h1.188V16.537H20.3l-3.176,3.639H28.646V30.1h3.638V2.646Z" transform="translate(0 -2.646)" fill="#fff"/>
          </g>
          <path id="패스_18" data-name="패스 18" d="M391.566,8.434a2.152,2.152,0,0,1,2.15-2.15h15.545a5.127,5.127,0,0,1,0,10.254H395.2v3.638h12.839l6.2,9.922h4.29l-6.487-10.383a8.761,8.761,0,0,0-2.784-17.069H393.716a5.8,5.8,0,0,0-5.788,5.788V30.1h3.638Z" transform="translate(-193.964 -1.323)" fill="#fff"/>
        </g>
        <g id="그룹_33" data-name="그룹 33" transform="translate(238.293 1.653)">
          <rect id="사각형_29" data-name="사각형 29" width="20.225" height="3.638" transform="translate(7.276 11.956)" fill="#fff"/>
          <path id="패스_19" data-name="패스 19" d="M662.415,6.946h11.907V30.759h3.638V6.946h11.907V3.307H662.415Z" transform="translate(-569.501 -3.307)" fill="#fff"/>
          <path id="패스_20" data-name="패스 20" d="M748.405,3.307V15.214H728.23V3.307h-3.638V30.759h3.638V18.852h20.176V30.759h3.638V3.307Z" transform="translate(-600.589 -3.307)" fill="#fff"/>
          <path id="패스_21" data-name="패스 21" d="M524.659,5.345,505.623,27.121H482.374a2.153,2.153,0,0,1-2.15-2.15V9.1a2.153,2.153,0,0,1,2.15-2.15h21.713V3.307H482.374A5.8,5.8,0,0,0,476.586,9.1V24.971a5.8,5.8,0,0,0,5.788,5.788h24.9L526.753,8.478A4.522,4.522,0,0,1,529.9,6.945h1.188V17.2h-8.343l-3.176,3.638h11.519v9.922h3.638V3.307h-5.146A6.581,6.581,0,0,0,524.659,5.345Z" transform="translate(-476.586 -3.307)" fill="#fff"/>
          <path id="패스_22" data-name="패스 22" d="M630.238,12.072a8.775,8.775,0,0,0-8.765-8.765H605.928A5.8,5.8,0,0,0,600.14,9.1V30.759h3.638V9.1a2.152,2.152,0,0,1,2.15-2.15h15.545a5.126,5.126,0,0,1,0,10.253H607.417v3.638h12.838l6.2,9.922h4.29l-6.487-10.383A8.775,8.775,0,0,0,630.238,12.072Z" transform="translate(-538.363 -3.307)" fill="#fff"/>
        </g>
      </g>
    </g>
  </g>
</svg>
