<svg xmlns="http://www.w3.org/2000/svg" width="20" height="17.139" viewBox="0 0 20 17.139">
  <path id="Icon_ionic-md-eye-off" data-name="Icon ionic-md-eye-off" d="M11,5.606a4.534,4.534,0,0,1,4.548,4.512,4.341,4.341,0,0,1-.326,1.651L17.88,14.4A10.67,10.67,0,0,0,21,10.119,10.771,10.771,0,0,0,7.374,3.982l1.964,1.95A4.5,4.5,0,0,1,11,5.606ZM1.911,3.147,3.986,5.2l.42.415A10.619,10.619,0,0,0,1,10.119a10.787,10.787,0,0,0,13.983,6.008l.384.379,2.665,2.633,1.156-1.147L3.062,2ZM6.936,8.133l1.41,1.4a2.557,2.557,0,0,0-.071.585A2.714,2.714,0,0,0,11,12.819a2.565,2.565,0,0,0,.589-.071l1.41,1.4A4.524,4.524,0,0,1,6.454,10.11,4.458,4.458,0,0,1,6.936,8.133Zm3.919-.7,2.865,2.843.018-.143a2.714,2.714,0,0,0-2.727-2.7Z" transform="translate(-1 -2)" fill="#a5b4d1"/>
</svg>
