<svg id="그룹_28" data-name="그룹 28" xmlns="http://www.w3.org/2000/svg" width="80" height="35" viewBox="0 0 80 35">
  <path id="패스_8" data-name="패스 8" d="M35.011,0a9.663,9.663,0,0,0-6.783,2.612L0,35H7.542L32.14,6.748A4.344,4.344,0,0,1,35.011,5.7h.85v12.21h-7.78L23.12,23.6H35.86V35h5.678V0Z" fill="#3574e6"/>
  <g id="그룹_27" data-name="그룹 27" transform="translate(45.119)">
    <path id="패스_9" data-name="패스 9" d="M105.055,0a7.728,7.728,0,0,0-7.706,7.732V27.268A7.728,7.728,0,0,0,105.055,35H132.23V29.3H105.055a2.034,2.034,0,0,1-2.028-2.035V7.732A2.034,2.034,0,0,1,105.055,5.7H132.23V0Z" transform="translate(-97.349)" fill="#3574e6"/>
    <rect id="사각형_7" data-name="사각형 7" width="23.525" height="5.698" transform="translate(11.356 14.651)" fill="#3574e6"/>
  </g>
</svg>
